<mxfile host="app.diagrams.net" modified="2023-06-27T11:34:25.474Z" agent="Mozilla/5.0 (Windows NT 10.0; Win64; x64) AppleWebKit/537.36 (KHTML, like Gecko) Chrome/114.0.0.0 Safari/537.36" version="21.5.1" etag="-ARzfLmbSk9rJbot0XCn" type="github">
  <diagram name="PÃ¡gina-1" id="DUX1Xd5yBtQg2dTPmayq">
    <mxGraphModel>
      <root>
        <mxCell id="0" />
        <mxCell id="1" parent="0" />
      </root>
    </mxGraphModel>
  </diagram>
</mxfile>
